# xmcd CD database file
#
# Track frame offsets:
#	150
#	14684
#	29739
#
# Disc length: 644 seconds
#
# Revision: 3
# Processed by: cddbd v1.5.2PL0 Copyright (c) Steve Scherf et al.
# Submitted via: CDex 1.51
#
DISCID=23028203
DTITLE=Window Seats - Local Superhero (demo)
DYEAR=2008
DGENRE=Blues
TTITLE0=Local Superhero
TTITLE1=Don't Stare
TTITLE2=Forget Us All
EXTD=YEAR: 2008
EXTT0=
EXTT1=
EXTT2=
PLAYORDER=
